HIERARCHY
ROOT Hips
{
	OFFSET 0.000000 97.167313 0.000000
	CHANNELS 6 Xposition Yposition Zposition Xrotation Yrotation Zrotation
	JOINT Spine
	{
		OFFSET 0.000000 13.784798 0.064400
		CHANNELS 3 Xrotation Yrotation Zrotation
		JOINT Spine1
		{
			OFFSET 0.000000 12.037903 0.404700
			CHANNELS 3 Xrotation Yrotation Zrotation
			JOINT Spine2
			{
				OFFSET 0.000000 17.795601 0.420200
				CHANNELS 3 Xrotation Yrotation Zrotation
				JOINT Neck
				{
					OFFSET 0.000000 39.131302 11.954600
					CHANNELS 3 Xrotation Yrotation Zrotation
					JOINT Head
					{
						OFFSET 0.000000 14.456192 15.627699
						CHANNELS 3 Xrotation Yrotation Zrotation
						JOINT HeadTop_End
						{
							OFFSET 0.000000 15.703506 7.603401
							CHANNELS 3 Xrotation Yrotation Zrotation
							End Site
							{
								OFFSET 0.000000 17.447403 0.000000
							}
						}
					}
				}
				JOINT LeftShoulder
				{
					OFFSET 17.399500 24.608795 1.168800
					CHANNELS 3 Xrotation Yrotation Zrotation
					JOINT LeftArm
					{
						OFFSET 18.980635 5.765305 1.818600
						CHANNELS 3 Xrotation Yrotation Zrotation
						JOINT LeftForeArm
						{
							OFFSET 49.290169 0.000000 0.000000
							CHANNELS 3 Xrotation Yrotation Zrotation
							JOINT LeftHand
							{
								OFFSET 31.562012 0.000000 0.000000
								CHANNELS 3 Xrotation Yrotation Zrotation
								JOINT LeftHandThumb1
								{
									OFFSET 6.133995 -4.388519 7.076070
									CHANNELS 3 Xrotation Yrotation Zrotation
									JOINT LeftHandThumb2
									{
										OFFSET 6.037666 -3.485840 3.485847
										CHANNELS 3 Xrotation Yrotation Zrotation
										JOINT LeftHandThumb3
										{
											OFFSET 6.496506 -3.750763 3.750761
											CHANNELS 3 Xrotation Yrotation Zrotation
											JOINT LeftHandThumb4
											{
												OFFSET 5.616882 -3.242905 3.242910
												CHANNELS 3 Xrotation Yrotation Zrotation
												End Site
												{
													OFFSET -1.254608 7.132141 0.375429
												}
											}
										}
									}
								}
								JOINT LeftHandPinky1
								{
									OFFSET 18.920792 -0.453171 -11.426712
									CHANNELS 3 Xrotation Yrotation Zrotation
									JOINT LeftHandPinky2
									{
										OFFSET 4.919586 0.000000 0.000000
										CHANNELS 3 Xrotation Yrotation Zrotation
										JOINT LeftHandPinky3
										{
											OFFSET 5.233047 0.000000 0.000000
											CHANNELS 3 Xrotation Yrotation Zrotation
											JOINT LeftHandPinky4
											{
												OFFSET 5.571716 0.000000 0.000000
												CHANNELS 3 Xrotation Yrotation Zrotation
												End Site
												{
													OFFSET -3.459808 4.342407 -0.466164
												}
											}
										}
									}
								}
								JOINT LeftHandRing1
								{
									OFFSET 22.726120 -0.094986 -6.500475
									CHANNELS 3 Xrotation Yrotation Zrotation
									JOINT LeftHandRing2
									{
										OFFSET 6.408615 0.000000 0.000000
										CHANNELS 3 Xrotation Yrotation Zrotation
										JOINT LeftHandRing3
										{
											OFFSET 6.150223 0.000000 0.000000
											CHANNELS 3 Xrotation Yrotation Zrotation
											JOINT LeftHandRing4
											{
												OFFSET 6.145386 0.000000 0.000000
												CHANNELS 3 Xrotation Yrotation Zrotation
												End Site
												{
													OFFSET -3.671402 4.923981 -0.202372
												}
											}
										}
									}
								}
								JOINT LeftHandMiddle1
								{
									OFFSET 23.373947 0.000000 0.000001
									CHANNELS 3 Xrotation Yrotation Zrotation
									JOINT LeftHandMiddle2
									{
										OFFSET 6.996567 0.000000 0.000000
										CHANNELS 3 Xrotation Yrotation Zrotation
										JOINT LeftHandMiddle3
										{
											OFFSET 7.015945 0.000000 0.000000
											CHANNELS 3 Xrotation Yrotation Zrotation
											JOINT LeftHandMiddle4
											{
												OFFSET 7.721573 0.000000 0.000000
												CHANNELS 3 Xrotation Yrotation Zrotation
												End Site
												{
													OFFSET -4.651108 6.158463 0.251582
												}
											}
										}
									}
								}
								JOINT LeftHandIndex1
								{
									OFFSET 21.310577 -0.490082 6.209344
									CHANNELS 3 Xrotation Yrotation Zrotation
									JOINT LeftHandIndex2
									{
										OFFSET 7.536453 0.000000 0.000000
										CHANNELS 3 Xrotation Yrotation Zrotation
										JOINT LeftHandIndex3
										{
											OFFSET 7.512344 0.000000 0.000000
											CHANNELS 3 Xrotation Yrotation Zrotation
											JOINT LeftHandIndex4
											{
												OFFSET 10.212402 0.000000 0.000001
												CHANNELS 3 Xrotation Yrotation Zrotation
												End Site
												{
													OFFSET -5.180801 8.690506 1.388433
												}
											}
										}
									}
								}
							}
						}
					}
				}
				JOINT RightShoulder
				{
					OFFSET -17.399500 24.608795 1.168800
					CHANNELS 3 Xrotation Yrotation Zrotation
					JOINT RightArm
					{
						OFFSET -18.980635 5.765305 1.818600
						CHANNELS 3 Xrotation Yrotation Zrotation
						JOINT RightForeArm
						{
							OFFSET -49.290169 0.000000 0.000000
							CHANNELS 3 Xrotation Yrotation Zrotation
							JOINT RightHand
							{
								OFFSET -31.562012 0.000000 0.000000
								CHANNELS 3 Xrotation Yrotation Zrotation
								JOINT RightHandThumb1
								{
									OFFSET -6.133995 -4.388519 7.076070
									CHANNELS 3 Xrotation Yrotation Zrotation
									JOINT RightHandThumb2
									{
										OFFSET -6.037666 -3.485840 3.485847
										CHANNELS 3 Xrotation Yrotation Zrotation
										JOINT RightHandThumb3
										{
											OFFSET -6.496506 -3.750763 3.750761
											CHANNELS 3 Xrotation Yrotation Zrotation
											JOINT RightHandThumb4
											{
												OFFSET -5.616882 -3.242905 3.242910
												CHANNELS 3 Xrotation Yrotation Zrotation
												End Site
												{
													OFFSET 1.254608 7.132141 0.375429
												}
											}
										}
									}
								}
								JOINT RightHandIndex1
								{
									OFFSET -21.310577 -0.490082 6.209344
									CHANNELS 3 Xrotation Yrotation Zrotation
									JOINT RightHandIndex2
									{
										OFFSET -7.536453 0.000000 0.000000
										CHANNELS 3 Xrotation Yrotation Zrotation
										JOINT RightHandIndex3
										{
											OFFSET -7.512344 0.000000 0.000000
											CHANNELS 3 Xrotation Yrotation Zrotation
											JOINT RightHandIndex4
											{
												OFFSET -10.212402 0.000000 0.000001
												CHANNELS 3 Xrotation Yrotation Zrotation
												End Site
												{
													OFFSET 5.180801 8.690506 1.388433
												}
											}
										}
									}
								}
								JOINT RightHandMiddle1
								{
									OFFSET -23.373947 0.000000 0.000001
									CHANNELS 3 Xrotation Yrotation Zrotation
									JOINT RightHandMiddle2
									{
										OFFSET -6.996567 0.000000 0.000000
										CHANNELS 3 Xrotation Yrotation Zrotation
										JOINT RightHandMiddle3
										{
											OFFSET -7.015945 0.000000 0.000000
											CHANNELS 3 Xrotation Yrotation Zrotation
											JOINT RightHandMiddle4
											{
												OFFSET -7.721573 0.000000 0.000000
												CHANNELS 3 Xrotation Yrotation Zrotation
												End Site
												{
													OFFSET 4.651108 6.158463 0.251582
												}
											}
										}
									}
								}
								JOINT RightHandRing1
								{
									OFFSET -22.726120 -0.094986 -6.500475
									CHANNELS 3 Xrotation Yrotation Zrotation
									JOINT RightHandRing2
									{
										OFFSET -6.408615 0.000000 0.000000
										CHANNELS 3 Xrotation Yrotation Zrotation
										JOINT RightHandRing3
										{
											OFFSET -6.150223 0.000000 0.000000
											CHANNELS 3 Xrotation Yrotation Zrotation
											JOINT RightHandRing4
											{
												OFFSET -6.145386 0.000000 0.000000
												CHANNELS 3 Xrotation Yrotation Zrotation
												End Site
												{
													OFFSET 3.671402 4.923981 -0.202372
												}
											}
										}
									}
								}
								JOINT RightHandPinky1
								{
									OFFSET -18.920792 -0.453171 -11.426712
									CHANNELS 3 Xrotation Yrotation Zrotation
									JOINT RightHandPinky2
									{
										OFFSET -4.919586 0.000000 0.000000
										CHANNELS 3 Xrotation Yrotation Zrotation
										JOINT RightHandPinky3
										{
											OFFSET -5.233047 0.000000 0.000000
											CHANNELS 3 Xrotation Yrotation Zrotation
											JOINT RightHandPinky4
											{
												OFFSET -5.571716 0.000000 0.000000
												CHANNELS 3 Xrotation Yrotation Zrotation
												End Site
												{
													OFFSET 3.459808 4.342407 -0.466164
												}
											}
										}
									}
								}
							}
						}
					}
				}
			}
		}
	}
	JOINT LeftUpLeg
	{
		OFFSET 19.899099 -7.885101 -3.429500
		CHANNELS 3 Xrotation Yrotation Zrotation
		JOINT LeftLeg
		{
			OFFSET 1.745560 -36.997807 10.304700
			CHANNELS 3 Xrotation Yrotation Zrotation
			JOINT LeftFoot
			{
				OFFSET -1.745558 -29.803308 -13.615400
				CHANNELS 3 Xrotation Yrotation Zrotation
				JOINT LeftToeBase
				{
					OFFSET 1.181900 -18.539904 15.226099
					CHANNELS 3 Xrotation Yrotation Zrotation
					JOINT LeftToe_End
					{
						OFFSET -0.863701 1.402801 16.534700
						CHANNELS 3 Xrotation Yrotation Zrotation
						End Site
						{
							OFFSET 0.000000 16.616566 0.000000
						}
					}
				}
			}
		}
	}
	JOINT RightUpLeg
	{
		OFFSET -19.899099 -7.885101 -3.429500
		CHANNELS 3 Xrotation Yrotation Zrotation
		JOINT RightLeg
		{
			OFFSET -1.745560 -36.997807 10.304700
			CHANNELS 3 Xrotation Yrotation Zrotation
			JOINT RightFoot
			{
				OFFSET 1.745558 -29.803308 -13.615400
				CHANNELS 3 Xrotation Yrotation Zrotation
				JOINT RightToeBase
				{
					OFFSET -1.181900 -18.539904 15.226099
					CHANNELS 3 Xrotation Yrotation Zrotation
					JOINT RightToe_End
					{
						OFFSET 0.863701 1.402801 16.534700
						CHANNELS 3 Xrotation Yrotation Zrotation
						End Site
						{
							OFFSET 0.000000 16.616566 0.000000
						}
					}
				}
			}
		}
	}
}
MOTION
Frames: 5
Frame Time: 0.033333
-2.660038 87.465431 1.462114 17.111492 13.504828 11.662868 4.176852 2.593501 0.616934 8.281403 5.410297 1.857907 8.281403 5.410290 1.857912 -35.365412 -21.724330 -13.471989 1.970646 -27.841898 4.343019 0.000000 0.000000 -0.000002 -3.816764 -19.308957 3.062602 -40.656233 -27.842429 -56.384397 -0.075065 -127.549302 -0.149121 92.863559 -13.403801 -0.601317 -12.712350 15.020938 -33.208479 -7.433026 13.773598 26.024488 0.000016 0.000010 0.000003 -0.000001 -0.000000 -0.000001 -3.976559 -8.265002 -39.878415 -6.001592 -6.899656 -94.482867 0.000004 0.000006 -0.000012 0.000001 0.000005 -0.000005 -4.648848 -2.713256 -52.349131 -6.186157 -4.681450 -105.851437 -0.000004 -0.000001 0.000004 0.000000 0.000001 0.000005 -0.346948 1.637622 -49.884881 -5.590129 -4.591755 -101.120814 0.000006 -0.000001 0.000011 -0.000003 0.000001 0.000004 5.110345 13.818666 -50.304719 1.115385 0.902323 -94.806352 0.000000 0.000003 -0.000012 -0.000000 0.000002 -0.000004 2.703867 -6.878039 -4.089350 -55.893484 41.198540 7.461603 -0.041319 42.525338 -0.117620 27.170832 -1.785363 36.329056 14.253336 -7.689027 23.903645 -19.345375 -24.480849 -31.435300 0.000003 0.000016 0.000002 0.000000 -0.000001 -0.000001 -7.269208 6.892546 4.602641 0.543101 -1.408630 39.127312 -0.000000 0.000008 0.000009 -0.000001 -0.000001 0.000003 -0.509275 -5.935608 13.033382 -2.432539 3.362634 71.526192 0.000000 0.000006 -0.000004 0.000001 0.000000 -0.000004 4.730697 -14.722490 18.625738 -3.728982 5.605112 65.235799 0.000012 0.000016 0.000004 -0.000000 -0.000000 -0.000003 10.367625 -12.467773 32.706631 -2.246043 6.298464 39.403850 -0.000000 -0.000003 0.000007 0.000002 -0.000000 0.000002 -18.038569 -11.911702 -11.893225 14.248543 1.226605 -0.085585 -8.884228 -4.442016 -2.776138 -7.961214 -2.724547 0.027046 0.000000 -0.000000 0.000000 -32.297888 -7.839411 -25.223779 42.189413 1.136258 1.816642 -26.732585 6.186497 5.392745 -3.884817 5.313401 -0.867659 -0.000000 0.000000 -0.000000 
-2.679804 87.548515 1.478264 17.093629 13.698268 11.760988 4.173169 2.596141 0.617647 8.273524 5.416238 1.865505 8.273518 5.416243 1.865508 -35.198874 -21.933230 -13.081274 1.699003 -27.783285 4.062494 0.000001 -0.000000 -0.000000 -3.803943 -19.418971 3.065088 -40.529349 -27.672911 -56.700966 -0.074512 -127.557321 -0.148485 93.181464 -13.569521 -0.281348 -12.755759 15.012093 -33.195228 -7.394294 13.739080 26.005996 0.000013 0.000017 0.000002 0.000001 0.000001 0.000005 -3.977200 -8.265812 -39.878169 -6.001847 -6.899627 -94.484992 0.000008 0.000004 -0.000010 0.000002 0.000004 -0.000007 -4.657506 -2.712061 -52.399897 -6.186508 -4.681380 -105.855522 0.000001 0.000004 -0.000003 -0.000003 -0.000002 0.000003 -0.349035 1.635950 -49.882296 -5.590483 -4.591669 -101.125411 0.000001 0.000001 0.000006 0.000001 0.000000 0.000009 5.107528 13.825160 -50.335885 1.115364 0.902319 -94.805327 0.000000 0.000005 -0.000014 -0.000002 0.000001 0.000001 2.435379 -7.021733 -4.081590 -55.833771 41.569914 7.624435 -0.043234 42.204917 -0.116878 27.152114 -1.744264 36.236619 15.514679 -10.472989 25.130540 -18.608582 -23.860866 -31.144935 0.000005 0.000012 0.000002 -0.000000 -0.000001 0.000002 -8.220464 5.633438 8.638053 0.511907 -1.372685 37.872026 -0.000000 0.000008 0.000011 -0.000000 0.000001 -0.000001 -0.388850 -6.104610 15.921900 -2.399258 3.351345 70.958262 0.000001 0.000007 -0.000006 0.000001 0.000000 -0.000004 4.822328 -12.454751 22.221595 -3.665731 5.575669 64.586603 0.000011 0.000014 0.000007 0.000000 0.000000 -0.000005 10.392143 -11.585330 34.515664 -2.209260 6.254131 39.067996 0.000001 0.000003 -0.000001 0.000001 0.000000 0.000000 -17.994429 -11.821878 -11.969562 13.960745 1.215462 -0.084543 -8.457423 -4.587238 -2.804346 -8.144420 -2.839750 0.027814 -0.000000 -0.000001 -0.000000 -32.192034 -7.916813 -25.365227 42.047898 1.144962 1.816202 -26.762950 6.137193 5.406257 -3.882379 5.527400 -0.957646 -0.000000 0.000001 -0.000000 
-2.680811 87.611763 1.500435 17.049154 13.856815 11.848389 4.169333 2.599803 0.622182 8.265659 5.422220 1.873145 8.265650 5.422215 1.873143 -35.176444 -22.201460 -12.572456 1.422355 -27.687748 3.670194 0.000000 -0.000001 -0.000000 -3.795670 -19.471070 3.058625 -40.457403 -27.553267 -57.105501 -0.074097 -127.505821 -0.148024 93.495912 -13.787716 0.024258 -12.812090 15.045611 -33.145347 -7.385300 13.731245 26.001728 0.000016 0.000014 0.000002 0.000002 -0.000000 0.000000 -3.977915 -8.266640 -39.877940 -6.002102 -6.899621 -94.487143 0.000004 0.000004 -0.000011 -0.000001 0.000001 -0.000000 -4.665148 -2.711476 -52.441376 -6.186842 -4.681252 -105.859879 -0.000002 0.000003 -0.000006 0.000001 -0.000001 0.000005 -0.351133 1.634248 -49.879700 -5.590859 -4.591594 -101.130069 0.000009 0.000001 0.000011 0.000002 -0.000002 0.000006 5.104724 13.831232 -50.365200 1.115386 0.902300 -94.804276 -0.000000 0.000003 -0.000016 0.000001 -0.000001 0.000003 2.166808 -7.156921 -4.044135 -55.789764 41.928998 7.811007 -0.045139 41.863251 -0.116182 27.147360 -1.727597 36.154903 16.444461 -12.282542 26.301879 -17.931219 -23.283299 -30.878025 0.000005 0.000014 0.000001 -0.000000 -0.000001 0.000001 -9.162518 3.281112 17.252961 0.502543 -1.361558 37.488859 -0.000001 0.000008 0.000013 -0.000000 -0.000003 0.000001 -0.320042 -5.983967 18.920304 -2.370588 3.341314 70.466952 -0.000000 0.000007 -0.000006 0.000000 0.000000 -0.000004 4.494884 -9.677642 26.012683 -3.621670 5.554614 64.132150 0.000012 0.000015 0.000006 -0.000000 -0.000000 -0.000002 10.220368 -10.359572 36.402408 -2.242858 6.294628 39.374661 0.000001 -0.000003 -0.000000 0.000001 0.000002 -0.000001 -17.973197 -11.857301 -12.075534 13.774552 1.208625 -0.084081 -8.102781 -4.587183 -2.804604 -8.328398 -2.932756 0.028671 -0.000000 0.000000 0.000000 -32.060525 -7.984247 -25.502453 41.933366 1.157525 1.817605 -26.818383 6.101335 5.439185 -3.872064 5.761133 -1.042082 -0.000000 -0.000000 -0.000000 
-2.664703 87.656052 1.527981 16.989831 13.990913 11.926510 4.165364 2.604358 0.630259 8.257827 5.428240 1.880819 8.257832 5.428245 1.880825 -35.271473 -22.518700 -11.977205 1.148397 -27.564982 3.194619 0.000000 -0.000001 -0.000000 -3.791565 -19.473025 3.045214 -40.418799 -27.508220 -57.497584 -0.073967 -127.418504 -0.147857 93.759516 -13.977974 0.298146 -12.875634 15.111334 -33.068668 -7.399258 13.744006 26.008406 0.000016 0.000015 0.000008 0.000001 -0.000000 -0.000002 -3.978580 -8.267458 -39.877684 -6.002344 -6.899598 -94.489260 0.000005 0.000002 -0.000009 -0.000001 -0.000000 -0.000004 -4.671759 -2.711483 -52.474035 -6.187225 -4.681159 -105.864374 0.000000 0.000005 -0.000001 -0.000000 -0.000002 0.000007 -0.353220 1.632553 -49.877108 -5.591239 -4.591528 -101.134843 0.000008 0.000001 0.000009 0.000000 0.000001 0.000006 5.102006 13.836830 -50.392760 1.115322 0.902326 -94.803251 0.000001 0.000003 -0.000015 -0.000000 0.000000 -0.000002 1.902430 -7.270509 -3.985787 -55.784405 42.220183 8.023947 -0.046897 41.550547 -0.115500 27.178130 -1.717658 36.105230 16.715394 -12.499771 27.135133 -17.322716 -22.757891 -30.638463 0.000004 0.000017 0.000003 -0.000002 0.000005 0.000000 -9.500622 1.734577 23.330852 0.552072 -1.418688 39.482923 0.000001 0.000008 0.000011 -0.000000 -0.000001 0.000001 -0.349102 -5.604022 21.390735 -2.397162 3.350639 70.922622 0.000001 0.000007 -0.000003 0.000001 0.000000 -0.000009 4.102206 -7.817274 28.857430 -3.674371 5.579726 64.675369 0.000012 0.000017 0.000006 -0.000000 -0.000000 -0.000003 9.893458 -9.008634 38.134445 -2.300333 6.362895 39.895132 0.000002 0.000000 0.000000 -0.000000 -0.000001 0.000004 -17.930247 -11.763549 -12.159735 13.677492 1.203543 -0.084905 -7.812722 -4.710867 -2.795012 -8.512062 -3.005646 0.029555 0.000000 0.000000 0.000000 -31.916764 -8.043885 -25.640660 41.846250 1.173850 1.820874 -26.898234 6.075800 5.489345 -3.855306 6.010662 -1.121670 -0.000000 0.000001 -0.000000 
-2.633270 87.682747 1.560301 16.927326 14.111083 11.997018 4.161258 2.609570 0.641342 8.249985 5.434239 1.888497 8.249966 5.434238 1.888498 -35.457308 -22.874560 -11.327140 0.884470 -27.425183 2.663958 -0.000000 0.000001 -0.000001 -3.790849 -19.432387 3.027033 -40.392615 -27.563107 -57.777970 -0.074056 -127.318988 -0.147931 93.924329 -14.060501 0.521969 -12.940727 15.199085 -32.975002 -7.429382 13.771311 26.022780 0.000015 0.000012 0.000002 -0.000001 0.000002 -0.000002 -3.979249 -8.268272 -39.877458 -6.002580 -6.899583 -94.491426 0.000006 0.000004 -0.000010 -0.000000 0.000004 -0.000009 -4.677454 -2.712015 -52.498453 -6.187609 -4.681059 -105.869059 -0.000006 -0.000001 -0.000007 -0.000001 -0.000002 0.000001 -0.355275 1.630861 -49.874526 -5.591639 -4.591475 -101.139754 0.000003 0.000001 0.000009 -0.000002 0.000000 0.000006 5.099361 13.842044 -50.418619 1.115324 0.902345 -94.802179 -0.000001 0.000001 -0.000012 0.000002 0.000005 0.000002 1.670720 -7.377305 -3.944065 -55.922891 42.369053 8.342534 -0.048026 41.317785 -0.114937 27.296042 -1.697025 36.115134 16.668744 -12.314404 27.559564 -16.792502 -22.294277 -30.430002 0.000006 0.000015 0.000001 -0.000003 -0.000000 -0.000002 -9.573728 0.785976 27.162351 0.581898 -1.451238 40.646705 0.000001 0.000008 0.000009 -0.000001 -0.000001 -0.000001 -0.466787 -4.997651 23.722389 -2.420365 3.358556 71.318506 0.000000 0.000008 -0.000003 -0.000000 0.000000 -0.000001 3.628567 -6.235026 31.377390 -3.744425 5.612194 65.393782 0.000012 0.000016 0.000002 0.000000 0.000001 -0.000005 9.454023 -7.747781 39.471738 -2.333654 6.401876 40.194188 0.000002 -0.000002 0.000004 0.000001 0.000002 -0.000005 -17.891455 -11.609636 -12.238779 13.654610 1.200400 -0.086565 -7.575043 -4.895530 -2.773743 -8.694726 -3.060518 0.030564 0.000000 0.000000 -0.000000 -31.771912 -8.092388 -25.782702 41.787084 1.193982 1.826062 -27.001264 6.051205 5.554220 -3.833618 6.272071 -1.197241 -0.000000 0.000000 -0.000000 
